<svg width="124" height="124" viewBox="0 0 124 124" fill="none" xmlns="http://www.w3.org/2000/svg">
<path fill-rule="evenodd" clip-rule="evenodd" d="M81.1667 45C80.0933 45 79.135 45.4156 78.445 46.0956L54.3333 69.8956L45.555 61.2067C44.865 60.5267 43.9067 60.1111 42.8333 60.1111C40.725 60.1111 39 61.8111 39 63.8889C39 64.9467 39.4217 65.8911 40.1117 66.5711L51.6117 77.9044C52.3017 78.5844 53.26 79 54.3333 79C55.4067 79 56.365 78.5844 57.055 77.9044L83.8883 51.46C84.5783 50.78 85 49.8356 85 48.7778C85 46.7 83.275 45 81.1667 45Z" fill="#4DB663"/>
<circle cx="62" cy="62" r="60" stroke="#4DB663" stroke-width="4"/>
</svg>
